<svg width="30" height="29" viewBox="0 0 30 29" fill="none" xmlns="http://www.w3.org/2000/svg">
<path d="M15.0945 28.8013C11.8194 28.7991 8.64571 27.6647 6.11113 25.5905C3.57655 23.5163 1.83689 20.6297 1.18683 17.4197C0.536781 14.2098 1.0163 10.8738 2.54418 7.97686C4.07205 5.07995 6.55433 2.80024 9.57052 1.5239C13.0379 0.0686902 16.9409 0.0481865 20.4234 1.46688C23.9059 2.88558 26.6835 5.62764 28.1469 9.09156C29.6103 12.5555 29.64 16.4584 28.2296 19.9443C26.8191 23.4301 24.0837 26.2142 20.6232 27.6858C18.8742 28.4258 16.9937 28.8053 15.0945 28.8013ZM10.4678 11.8988V15.1585H12.2932V24.4419H16.129V15.1585H18.663L18.9952 11.9H16.1274V9.98129C16.112 9.86715 16.1219 9.75102 16.1564 9.64113C16.1909 9.53125 16.2492 9.43031 16.3271 9.34547C16.405 9.26063 16.5006 9.19397 16.6072 9.15023C16.7137 9.10648 16.8286 9.08671 16.9436 9.09233H19.0062V5.92876L16.1654 5.91651C13.3103 5.91651 12.2932 7.91667 12.2932 9.78871V11.8988H10.4678Z" fill="#757575"/>
</svg>
