<svg width="14" height="13" viewBox="0 0 14 13" fill="none" xmlns="http://www.w3.org/2000/svg">
<path d="M0.905986 2.19707H3.17415C3.36649 2.92813 4.03298 3.46889 4.82353 3.46889C5.61408 3.46889 6.28057 2.92813 6.4729 2.19707H13.5663C13.8058 2.19707 13.9999 2.00294 13.9999 1.7635C13.9999 1.52405 13.8058 1.32992 13.5663 1.32992H6.47284C6.28051 0.598859 5.61402 0.0581055 4.82347 0.0581055C4.03292 0.0581055 3.36643 0.598859 3.1741 1.32992H0.905986C0.666538 1.32992 0.472412 1.52405 0.472412 1.7635C0.472412 2.00294 0.666538 2.19707 0.905986 2.19707ZM4.82353 0.925253C5.28572 0.925253 5.66177 1.30131 5.66177 1.7635C5.66177 2.22569 5.28572 2.60174 4.82353 2.60174C4.36134 2.60174 3.98528 2.22569 3.98528 1.7635C3.98528 1.30131 4.36134 0.925253 4.82353 0.925253Z" fill="#FFCC00"/>
<path d="M13.5663 6.06613H10.6764C10.4841 5.33506 9.8176 4.79431 9.02705 4.79431C8.2365 4.79431 7.57001 5.33506 7.37768 6.06613H0.905986C0.666538 6.06613 0.472412 6.26025 0.472412 6.4997C0.472412 6.73915 0.666538 6.93328 0.905986 6.93328H7.37774C7.57007 7.66428 8.23656 8.20509 9.02711 8.20509C9.81766 8.20509 10.4842 7.66428 10.6765 6.93328H13.5664C13.8058 6.93328 14 6.73915 14 6.4997C14 6.26025 13.8058 6.06613 13.5663 6.06613ZM9.02711 7.33794C8.56492 7.33794 8.18887 6.96189 8.18887 6.4997C8.18887 6.03751 8.56492 5.66146 9.02711 5.66146C9.4893 5.66146 9.86535 6.03751 9.86535 6.4997C9.86535 6.96189 9.4893 7.33794 9.02711 7.33794Z" fill="#FFCC00"/>
<path d="M13.5663 10.8029H6.47284C6.28051 10.0719 5.61402 9.53113 4.82347 9.53113C4.03292 9.53113 3.36643 10.0719 3.1741 10.8029H0.905986C0.666538 10.8029 0.472412 10.9971 0.472412 11.2365C0.472412 11.476 0.666538 11.6701 0.905986 11.6701H3.17415C3.36649 12.4012 4.03298 12.9419 4.82353 12.9419C5.61408 12.9419 6.28057 12.4012 6.4729 11.6701H13.5663C13.8058 11.6701 13.9999 11.476 13.9999 11.2365C13.9999 10.9971 13.8058 10.8029 13.5663 10.8029ZM4.82353 12.0748C4.36134 12.0748 3.98528 11.6987 3.98528 11.2365C3.98528 10.7743 4.36134 10.3983 4.82353 10.3983C5.28572 10.3983 5.66177 10.7743 5.66177 11.2365C5.66177 11.6987 5.28572 12.0748 4.82353 12.0748Z" fill="#FFCC00"/>
</svg>
