<svg width="21" height="21" viewBox="0 0 21 21" fill="none" xmlns="http://www.w3.org/2000/svg">
<path d="M19.7854 14.51C18.4021 14.51 17.0632 14.2878 15.8187 13.8767C15.4354 13.7544 14.9965 13.8433 14.691 14.1489L12.2465 16.5989C9.09654 14.9989 6.5243 12.4267 4.9243 9.28224L7.36872 6.82667C7.6743 6.52109 7.76315 6.08224 7.64096 5.69891C7.22987 4.45448 7.00763 3.11557 7.00763 1.73224C7.00758 1.11552 6.51315 0.621094 5.89648 0.621094H2.00758C1.39648 0.621094 0.896484 1.11552 0.896484 1.73219C0.896484 12.1655 9.35206 20.6211 19.7854 20.6211C20.4021 20.6211 20.8965 20.1267 20.8965 19.51V15.6211C20.8965 15.0044 20.4021 14.51 19.7854 14.51Z" fill="white" fill-opacity="0.8"/>
</svg>
