<svg width="16" height="20" viewBox="0 0 16 20" fill="none" xmlns="http://www.w3.org/2000/svg">
<path d="M7.89559 0C3.90164 0 0.652344 3.2493 0.652344 7.2432C0.652344 12.1998 7.13434 19.4763 7.41031 19.7836C7.66953 20.0723 8.12211 20.0718 8.38086 19.7836C8.65684 19.4763 15.1388 12.1998 15.1388 7.2432C15.1388 3.2493 11.8895 0 7.89559 0ZM7.89559 10.8875C5.88613 10.8875 4.25137 9.25266 4.25137 7.2432C4.25137 5.23375 5.88617 3.59898 7.89559 3.59898C9.905 3.59898 11.5398 5.23379 11.5398 7.24324C11.5398 9.25269 9.905 10.8875 7.89559 10.8875Z" fill="white" fill-opacity="0.8"/>
</svg>
