<svg width="21" height="21" viewBox="0 0 21 21" fill="none" xmlns="http://www.w3.org/2000/svg">
<g clip-path="url(#clip0_1009_3635)">
<path d="M20.7199 4.09473L14.6543 10.1213L20.7199 16.1478C20.8295 15.9186 20.8961 15.6652 20.8961 15.3947V4.84781C20.8961 4.57723 20.8295 4.32391 20.7199 4.09473Z" fill="white" fill-opacity="0.8"/>
<path d="M19.1359 3.08984H2.65152C2.38094 3.08984 2.12762 3.15637 1.89844 3.26602L9.6509 10.9794C10.3364 11.6649 11.4511 11.6649 12.1365 10.9794L19.889 3.26602C19.6598 3.15637 19.4065 3.08984 19.1359 3.08984Z" fill="white" fill-opacity="0.8"/>
<path d="M1.07266 4.09473C0.963008 4.32391 0.896484 4.57723 0.896484 4.84781V15.3947C0.896484 15.6653 0.963008 15.9186 1.07266 16.1478L7.13824 10.1213L1.07266 4.09473Z" fill="white" fill-opacity="0.8"/>
<path d="M13.8234 10.9492L12.9651 11.8075C11.8229 12.9497 9.96445 12.9497 8.82231 11.8075L7.96402 10.9492L1.89844 16.9757C2.12762 17.0854 2.38094 17.1519 2.65152 17.1519H19.1359C19.4065 17.1519 19.6598 17.0854 19.889 16.9757L13.8234 10.9492Z" fill="white" fill-opacity="0.8"/>
</g>
<defs>
<clipPath id="clip0_1009_3635">
<rect width="20" height="20" fill="white" transform="translate(0.896484 0.121094)"/>
</clipPath>
</defs>
</svg>
