<svg width="45" height="22" viewBox="0 0 45 22" fill="none" xmlns="http://www.w3.org/2000/svg">
<rect width="9" height="9" transform="matrix(1 0 0 -1 0.879883 9.3848)" fill="#757575"/>
<rect width="9" height="9" transform="matrix(1 0 0 -1 0.879883 21.052)" fill="#757575"/>
<rect width="9" height="9" transform="matrix(1 0 0 -1 12.5469 9.3848)" fill="#757575"/>
<rect width="9" height="9" transform="matrix(1 0 0 -1 12.5469 21.052)" fill="#757575"/>
<rect width="9" height="9" transform="matrix(1 0 0 -1 24.2139 9.3848)" fill="#757575"/>
<rect width="9" height="9" transform="matrix(1 0 0 -1 24.2139 21.052)" fill="#757575"/>
<rect width="9" height="9" transform="matrix(1 0 0 -1 35.8809 9.3848)" fill="#757575"/>
<rect width="9" height="9" transform="matrix(1 0 0 -1 35.8809 21.052)" fill="#757575"/>
</svg>
