<svg width="29" height="29" viewBox="0 0 29 29" fill="none" xmlns="http://www.w3.org/2000/svg">
<g clip-path="url(#clip0_1001_4060)">
<path d="M18.7209 7.96045H10.2584C9.60832 7.96097 8.985 8.21945 8.52532 8.67913C8.06564 9.13881 7.80716 9.76212 7.80664 10.4122V18.8747C7.80716 19.5248 8.06564 20.1481 8.52532 20.6078C8.985 21.0675 9.60832 21.326 10.2584 21.3265H18.7209C19.3708 21.3253 19.9937 21.0665 20.4532 20.607C20.9127 20.1475 21.1714 19.5246 21.1727 18.8747V10.4122C21.1722 9.76212 20.9137 9.13881 20.454 8.67913C19.9943 8.21945 19.371 7.96097 18.7209 7.96045ZM14.4897 19.0408C13.6196 19.0404 12.7691 18.782 12.0459 18.2983C11.3226 17.8146 10.7591 17.1272 10.4264 16.3232C10.0938 15.5192 10.0071 14.6346 10.1772 13.7813C10.3474 12.928 10.7667 12.1443 11.3822 11.5293C11.9978 10.9143 12.7819 10.4957 13.6353 10.3263C14.4888 10.157 15.3733 10.2445 16.177 10.5778C16.9807 10.9111 17.6676 11.4753 18.1507 12.199C18.6337 12.9227 18.8914 13.7734 18.891 14.6435C18.8894 15.8099 18.4251 16.9281 17.5999 17.7525C16.7747 18.577 15.6561 19.0403 14.4897 19.0408ZM19.0333 11.1517C18.8276 11.1517 18.6266 11.0907 18.4555 10.9764C18.2845 10.8621 18.1512 10.6997 18.0725 10.5097C17.9938 10.3196 17.9732 10.1105 18.0133 9.90877C18.0534 9.70703 18.1525 9.52172 18.2979 9.37627C18.4434 9.23082 18.6287 9.13176 18.8304 9.09163C19.0322 9.05151 19.2413 9.0721 19.4313 9.15082C19.6214 9.22953 19.7838 9.36284 19.8981 9.53387C20.0124 9.7049 20.0734 9.90598 20.0734 10.1117C20.073 10.3874 19.9634 10.6518 19.7684 10.8467C19.5734 11.0417 19.3091 11.1514 19.0333 11.1517Z" fill="#757575"/>
<path d="M14.4899 12.1045C13.9879 12.1053 13.4975 12.2548 13.0805 12.5343C12.6635 12.8137 12.3387 13.2105 12.1472 13.6744C11.9557 14.1384 11.9059 14.6487 12.0043 15.141C12.1027 15.6332 12.3449 16.0852 12.7001 16.4398C13.0553 16.7945 13.5076 17.0359 14 17.1335C14.4924 17.2312 15.0026 17.1806 15.4663 16.9884C15.93 16.7961 16.3262 16.4707 16.605 16.0533C16.8838 15.6359 17.0326 15.1452 17.0326 14.6433C17.0319 13.9695 16.7636 13.3236 16.2868 12.8475C15.81 12.3714 15.1637 12.1042 14.4899 12.1045Z" fill="#757575"/>
<path d="M14.4895 0.407227C11.6817 0.407227 8.93692 1.23984 6.60232 2.79977C4.26772 4.3597 2.44812 6.57689 1.37362 9.17096C0.29912 11.765 0.0179819 14.6195 0.565757 17.3733C1.11353 20.1272 2.46562 22.6567 4.45103 24.6422C6.43645 26.6276 8.96602 27.9797 11.7199 28.5274C14.4737 29.0752 17.3282 28.7941 19.9222 27.7196C22.5163 26.6451 24.7335 24.8255 26.2934 22.4909C27.8533 20.1563 28.686 17.4115 28.686 14.6037C28.686 10.8386 27.1903 7.22764 24.5279 4.56528C21.8655 1.90292 18.2546 0.407227 14.4895 0.407227V0.407227ZM23.0311 18.8745C23.0297 20.0173 22.5752 21.1129 21.7671 21.9209C20.9591 22.729 19.8635 23.1835 18.7207 23.1849H10.2582C9.11544 23.1835 8.01988 22.729 7.21182 21.9209C6.40377 21.1129 5.94921 20.0173 5.94785 18.8745V10.412C5.94921 9.26924 6.40377 8.17367 7.21182 7.36562C8.01988 6.55756 9.11544 6.103 10.2582 6.10164H18.7207C19.8635 6.103 20.9591 6.55756 21.7671 7.36562C22.5752 8.17367 23.0297 9.26924 23.0311 10.412V18.8745Z" fill="#757575"/>
</g>
<defs>
<clipPath id="clip0_1001_4060">
<rect width="28.393" height="28.393" fill="white" transform="translate(0.292969 0.407227)"/>
</clipPath>
</defs>
</svg>
