<svg width="120" height="84" viewBox="0 0 120 84" fill="none" xmlns="http://www.w3.org/2000/svg">
<g clip-path="url(#clip0_1001_4002)">
<path fill-rule="evenodd" clip-rule="evenodd" d="M46.4007 55.4395H31.0875L28.8027 65.7809C28.8551 65.7809 28.951 65.9222 29.012 65.9664H48.4588L46.4007 55.4395ZM43.898 41.3624L39.1104 19.4431L34.8286 38.6777L34.2269 41.3271L43.898 41.3624ZM50.0982 0.5L65.3243 66.0017H88.3552C88.7262 66.034 89.0998 65.9837 89.4496 65.8544C89.7995 65.7252 90.1172 65.52 90.3806 65.2533C90.6439 64.9866 90.8465 64.6648 90.9742 64.3105C91.1018 63.9562 91.1514 63.5779 91.1196 63.2022V36.461L78.2045 25.1305V20.9356C78.2273 20.211 78.2098 19.4857 78.1522 18.7631C78.047 18.2117 77.7716 17.7084 77.3656 17.3259C76.9597 16.9433 76.4442 16.7013 75.8935 16.6348C75.5447 16.6348 75.1436 16.6348 74.7948 16.6348H68.4898L50.0982 0.5Z" fill="#757575"/>
<path d="M6.5125 74.3562L8.4659 78.657H4.56783L6.5125 74.3562ZM0.896484 82.7636H2.68419L3.92251 80.0612H9.1025L10.3495 82.7636H12.0936L6.5125 70.8413L0.896484 82.7636ZM18.73 82.7636V72.8195H22.2182V71.433H13.5674V72.8195H17.0556V82.7636H18.73ZM31.1218 83.0108L34.3484 75.6809L36.2931 82.7459H38.0372L34.7147 70.9031L31.1218 79.2929L27.5464 70.9031L24.1803 82.7636H25.9244L27.8691 75.6985L31.0869 83.0285L31.1218 83.0108ZM47.4205 81.4918C46.8591 81.4876 46.3044 81.3689 45.7893 81.1427C45.2743 80.9165 44.8096 80.5875 44.4229 80.1753C44.0363 79.7631 43.7356 79.2763 43.539 78.7438C43.3423 78.2113 43.2536 77.6442 43.2782 77.0762C43.2525 76.5097 43.3405 75.9438 43.5369 75.4128C43.7333 74.8817 44.0339 74.3965 44.4207 73.9864C44.8075 73.5763 45.2723 73.2499 45.7872 73.0269C46.302 72.8039 46.8562 72.6889 47.4161 72.6889C47.9761 72.6889 48.5302 72.8039 49.0451 73.0269C49.5599 73.2499 50.0248 73.5763 50.4116 73.9864C50.7983 74.3965 51.099 74.8817 51.2953 75.4128C51.4917 75.9438 51.5797 76.5097 51.554 77.0762C51.5798 77.6437 51.4923 78.2107 51.2966 78.7431C51.1009 79.2756 50.8011 79.7625 50.4151 80.1748C50.0292 80.5871 49.565 80.9163 49.0504 81.1426C48.5359 81.3689 47.9815 81.4877 47.4205 81.4918ZM47.4205 71.3182C46.6591 71.2931 45.9006 71.4244 45.1907 71.7042C44.4808 71.984 43.8342 72.4065 43.2898 72.9462C42.7455 73.4859 42.3147 74.1316 42.0235 74.8444C41.7322 75.5573 41.5865 76.3225 41.5952 77.0939C41.5763 77.8688 41.7154 78.6394 42.0036 79.3576C42.2919 80.0757 42.7231 80.726 43.2705 81.268C43.8179 81.8099 44.4697 82.2318 45.1852 82.5073C45.9007 82.7829 46.6646 82.9062 47.4292 82.8695C48.1903 82.8999 48.9494 82.772 49.6597 82.4937C50.3701 82.2153 51.0165 81.7925 51.5591 81.2512C52.1018 80.71 52.5291 80.0618 52.8147 79.3468C53.1003 78.6317 53.2381 77.865 53.2196 77.0939C53.2283 76.3217 53.0824 75.5557 52.7906 74.8423C52.4988 74.1288 52.0672 73.4827 51.522 72.9429C50.9767 72.4031 50.329 71.9808 49.6181 71.7015C48.9071 71.4223 48.1477 71.2919 47.3856 71.3182H47.4205ZM63.0215 71.3182C62.2594 71.2919 61.5 71.4223 60.789 71.7015C60.0781 71.9808 59.4304 72.4031 58.8851 72.9429C58.3399 73.4827 57.9083 74.1288 57.6165 74.8423C57.3247 75.5557 57.1788 76.3217 57.1875 77.0939C57.1686 77.8688 57.3077 78.6394 57.5959 79.3576C57.8842 80.0757 58.3154 80.726 58.8628 81.268C59.4102 81.8099 60.062 82.2318 60.7775 82.5073C61.493 82.7829 62.2569 82.9062 63.0215 82.8695C63.8297 82.8988 64.6349 82.7567 65.3858 82.4526C66.1366 82.1485 66.8164 81.6889 67.3818 81.1033L66.1522 80.1495C65.7476 80.5816 65.261 80.9264 64.7215 81.1632C64.182 81.4 63.6008 81.5238 63.0128 81.5272C61.9602 81.3915 60.9926 80.8718 60.2912 80.0655C59.5899 79.2591 59.2029 78.2214 59.2029 77.1469C59.2029 76.0723 59.5899 75.0346 60.2912 74.2282C60.9926 73.4219 61.9602 72.9022 63.0128 72.7665C63.9992 72.7574 64.9525 73.1266 65.6813 73.7998L66.9981 72.9167C66.4758 72.3889 65.8535 71.9737 65.1686 71.6959C64.4837 71.4182 63.7504 71.2837 63.0128 71.3005L63.0215 71.3182ZM77.7243 74.2767C79.4684 74.2767 81.2648 75.1598 81.2648 77.032C81.2648 78.9043 79.6167 79.8757 77.7243 79.911V74.2767ZM76.0238 79.911C74.1489 79.911 72.4833 78.816 72.4833 77.032C72.4833 75.2481 74.3146 74.3032 76.0238 74.2767V79.911ZM77.7243 71.2211H76.0238V72.8107C72.6402 73.1021 70.7915 74.5769 70.7915 77.032C70.7915 79.4871 72.8147 81.0414 76.0238 81.3064V82.9049H77.7243V81.3064C80.9247 81.0414 82.9566 79.3547 82.9566 77.032C82.9566 74.7094 81.134 73.1021 77.7243 72.8107V71.2211ZM89.061 77.2705H93.334V75.884H89.0871V72.8195H93.8137V71.433H87.3954V82.7636H93.9794V81.3682H89.0871V77.2705H89.061ZM103.232 76.3079C102.824 76.6595 102.303 76.8479 101.767 76.8378H100.171V72.8195H101.915C102.176 72.7847 102.442 72.8103 102.692 72.8944C102.942 72.9785 103.17 73.1189 103.359 73.305C103.548 73.4911 103.692 73.7182 103.782 73.969C103.872 74.2199 103.904 74.4882 103.877 74.7536C103.891 75.0458 103.839 75.3374 103.726 75.6065C103.612 75.8756 103.441 76.1154 103.223 76.3079H103.232ZM98.4792 71.433V82.7636H100.171V78.2154H101.767C102.805 78.2229 103.81 77.8461 104.592 77.1557C104.911 76.8423 105.164 76.4657 105.333 76.0495C105.503 75.6332 105.586 75.1861 105.578 74.7359C105.578 72.7224 104.147 71.4153 101.924 71.4153L98.4792 71.433ZM113.304 74.3562L115.249 78.657H111.351L113.391 74.3562H113.304ZM107.688 82.7636H109.432L110.775 80.0612H116.007L117.246 82.7636H118.99L113.391 70.8413L107.775 82.7636H107.688Z" fill="#757575"/>
</g>
<defs>
<clipPath id="clip0_1001_4002">
<rect width="119" height="83" fill="white" transform="translate(0.896484 0.5)"/>
</clipPath>
</defs>
</svg>
