<svg width="199" height="138" viewBox="0 0 199 138" fill="none" xmlns="http://www.w3.org/2000/svg">
<path fill-rule="evenodd" clip-rule="evenodd" d="M9.4249 122.838L12.6972 129.959H6.1571L9.4249 122.838ZM0 136.763H2.9931L5.0726 132.289H13.7772L15.8609 136.763H18.8407L9.4249 117L0 136.763ZM29.9327 136.763V120.292H35.7613V117.986H21.2683V120.292H27.0972V136.763H29.9327ZM50.7242 137.179L56.1345 125.023L59.4019 136.763H62.3814L56.751 117.108L50.7242 131.02L44.7244 117.108L39.0801 136.763H42.0647L45.3322 125.023L50.7242 137.179ZM78.078 134.653C73.6852 134.582 71.1286 131.082 71.1286 127.362C71.1286 123.621 73.9641 120.121 78.0647 120.121C82.3495 120.121 85.0138 123.829 85.0138 127.362C85.0138 131.165 82.2549 134.728 78.078 134.653ZM78.0647 117.803C72.4969 117.803 68.2928 121.915 68.2928 127.362C68.2928 132.934 72.4067 136.946 78.078 136.946C83.7357 136.946 87.8493 132.934 87.8493 127.362C87.8493 121.915 83.6413 117.803 78.0647 117.803ZM104.243 117.803C98.6624 117.803 94.4583 121.915 94.4583 127.362C94.4583 132.934 98.5722 136.946 104.243 136.946C107.169 136.946 109.834 135.884 111.575 133.958L109.518 132.372C108.132 133.787 106.26 134.653 104.243 134.653C99.8642 134.653 97.2941 130.957 97.2941 127.362C97.2941 123.608 100.13 120.134 104.243 120.134C105.945 120.134 107.579 120.766 108.727 121.852L110.941 120.475C109.149 118.706 106.895 117.803 104.243 117.803ZM128.942 122.693C131.832 122.743 134.874 124.228 134.874 127.266C134.874 130.217 132.106 131.985 128.942 132.031V122.693ZM126.079 132.031C122.929 131.985 120.147 130.217 120.147 127.266C120.147 124.228 123.208 122.743 126.079 122.693V132.031ZM128.942 117.633H126.079V120.267C120.399 120.754 117.325 123.242 117.325 127.266C117.325 131.12 120.728 133.908 126.079 134.349V136.996H128.942V134.349C134.307 133.908 137.71 131.12 137.71 127.266C137.71 123.242 134.64 120.754 128.942 120.267V117.633ZM148.01 127.666H155.13V125.364H148.01V120.292H155.936V117.986H145.174V136.763H156.224V134.457H148.01V127.666ZM171.79 126.072C171.142 126.642 170.273 126.95 169.337 126.95H166.645V120.292H169.589C170.827 120.292 172.884 120.708 172.884 123.488C172.884 124.557 172.514 125.448 171.79 126.072ZM163.81 117.986V136.763H166.645V129.251H169.337C171.101 129.251 172.965 128.569 174.072 127.495C175.152 126.471 175.732 125.036 175.732 123.488C175.732 120.146 173.32 117.986 169.589 117.986H163.81ZM188.76 122.838L192.032 129.959H185.492L188.76 122.838ZM179.335 136.763H182.328L184.408 132.289H193.112L195.196 136.763H198.176L188.76 117L179.335 136.763Z" fill="#757575"/>
<path fill-rule="evenodd" clip-rule="evenodd" d="M76.5922 90.9843H50.9118L47 108.103C47.0901 108.185 47.2568 108.335 47.3468 108.409H80.0331L76.5922 90.9843ZM72.386 67.6673L64.365 31.371L57.1766 63.2238L56.1738 67.6673H72.386ZM82.7958 0L108.326 108.471H146.941C149.283 108.465 151.587 107.222 151.585 103.803V59.5447L129.919 40.791V33.8484C129.919 33.0221 129.971 30.929 129.838 30.242C129.485 28.4237 127.941 26.8886 125.972 26.714C125.387 26.6622 124.725 26.6907 124.132 26.6907H113.63L82.7958 0Z" fill="#757575"/>
</svg>
