<svg width="68" height="48" viewBox="0 0 68 48" fill="none" xmlns="http://www.w3.org/2000/svg">
<path fill-rule="evenodd" clip-rule="evenodd" d="M26.2016 32.2441H17.384L16.0684 38.1387C16.0985 38.1387 16.1537 38.2192 16.1889 38.2444H27.3866L26.2016 32.2441ZM24.7604 24.2202L22.0037 11.7263L19.5382 22.6899L19.1917 24.2001L24.7604 24.2202ZM28.3307 0.928741L37.098 38.2645H50.3596C50.5733 38.2829 50.7883 38.2543 50.9898 38.1806C51.1913 38.1069 51.3742 37.99 51.5259 37.838C51.6775 37.686 51.7941 37.5025 51.8677 37.3006C51.9412 37.0986 51.9697 36.883 51.9514 36.6688V21.4264L44.5147 14.968V12.577C44.5278 12.164 44.5177 11.7506 44.4845 11.3387C44.424 11.0244 44.2654 10.7375 44.0316 10.5195C43.7979 10.3014 43.501 10.1635 43.184 10.1255C42.9831 10.1255 42.7521 10.1255 42.5513 10.1255H38.9208L28.3307 0.928741Z" fill="#FFCC00"/>
<path d="M3.23379 43.0265L4.35859 45.478H2.11402L3.23379 43.0265ZM0 47.8187H1.02939L1.74243 46.2783H4.72515L5.44321 47.8187H6.4475L3.23379 41.023L0 47.8187ZM10.2688 47.8187V42.1506H12.2774V41.3603H7.29612V42.1506H9.30468V47.8187H10.2688ZM17.4042 47.9596L19.2621 43.7816L20.3819 47.8086H21.3862L19.473 41.0583L17.4042 45.8404L15.3454 41.0583L13.4072 47.8187H14.4115L15.5312 43.7916L17.3841 47.9697L17.4042 47.9596ZM26.7892 47.0938C26.466 47.0914 26.1466 47.0237 25.85 46.8948C25.5534 46.7659 25.2858 46.5783 25.0632 46.3434C24.8406 46.1085 24.6675 45.831 24.5542 45.5274C24.441 45.2239 24.3899 44.9006 24.4041 44.5769C24.3893 44.254 24.44 43.9315 24.553 43.6288C24.6661 43.3261 24.8392 43.0495 25.0619 42.8157C25.2846 42.582 25.5523 42.3959 25.8488 42.2688C26.1452 42.1417 26.4643 42.0762 26.7867 42.0762C27.1092 42.0762 27.4283 42.1417 27.7247 42.2688C28.0212 42.3959 28.2889 42.582 28.5116 42.8157C28.7343 43.0495 28.9074 43.3261 29.0205 43.6288C29.1335 43.9315 29.1842 44.254 29.1694 44.5769C29.1843 44.9004 29.1339 45.2236 29.0212 45.5271C28.9085 45.8305 28.7359 46.1081 28.5136 46.3431C28.2914 46.5781 28.0241 46.7658 27.7278 46.8948C27.4315 47.0237 27.1123 47.0915 26.7892 47.0938ZM26.7892 41.2949C26.3508 41.2806 25.9141 41.3554 25.5053 41.5149C25.0965 41.6744 24.7242 41.9152 24.4108 42.2228C24.0973 42.5304 23.8493 42.8985 23.6816 43.3048C23.5139 43.7111 23.43 44.1473 23.4349 44.587C23.4241 45.0287 23.5042 45.468 23.6701 45.8773C23.8361 46.2866 24.0844 46.6573 24.3996 46.9662C24.7148 47.2751 25.0901 47.5156 25.5021 47.6726C25.9141 47.8297 26.354 47.9 26.7943 47.8791C27.2325 47.8964 27.6696 47.8235 28.0786 47.6649C28.4877 47.5062 28.8599 47.2652 29.1723 46.9567C29.4848 46.6481 29.7309 46.2787 29.8953 45.8711C30.0598 45.4635 30.1391 45.0265 30.1285 44.587C30.1335 44.1468 30.0494 43.7103 29.8814 43.3036C29.7134 42.8969 29.4649 42.5286 29.1509 42.2209C28.837 41.9132 28.464 41.6725 28.0547 41.5134C27.6453 41.3542 27.208 41.2799 26.7692 41.2949H26.7892ZM35.7726 41.2949C35.3337 41.2799 34.8964 41.3542 34.4871 41.5134C34.0777 41.6725 33.7048 41.9132 33.3908 42.2209C33.0768 42.5286 32.8283 42.8969 32.6603 43.3036C32.4923 43.7103 32.4082 44.1468 32.4132 44.587C32.4024 45.0287 32.4825 45.468 32.6484 45.8773C32.8144 46.2866 33.0627 46.6573 33.3779 46.9662C33.6931 47.2751 34.0684 47.5156 34.4804 47.6726C34.8924 47.8297 35.3323 47.9 35.7726 47.8791C36.2379 47.8958 36.7016 47.8148 37.1339 47.6414C37.5663 47.4681 37.9577 47.2061 38.2833 46.8723L37.5752 46.3287C37.3423 46.575 37.0621 46.7715 36.7514 46.9065C36.4408 47.0414 36.1061 47.112 35.7675 47.114C35.1614 47.0366 34.6043 46.7404 34.2004 46.2808C33.7966 45.8212 33.5738 45.2297 33.5738 44.6172C33.5738 44.0047 33.7966 43.4132 34.2004 42.9536C34.6043 42.494 35.1614 42.1977 35.7675 42.1204C36.3355 42.1152 36.8844 42.3256 37.3041 42.7094L38.0623 42.206C37.7616 41.9052 37.4033 41.6685 37.0089 41.5102C36.6145 41.3519 36.1923 41.2752 35.7675 41.2848L35.7726 41.2949ZM44.2387 42.9812C45.2429 42.9812 46.2774 43.4846 46.2774 44.5517C46.2774 45.6189 45.3283 46.1726 44.2387 46.1928V42.9812ZM43.2595 46.1928C42.1799 46.1928 41.2208 45.5686 41.2208 44.5517C41.2208 43.5349 42.2753 42.9963 43.2595 42.9812V46.1928ZM44.2387 41.2395H43.2595V42.1456C41.3112 42.3117 40.2466 43.1523 40.2466 44.5517C40.2466 45.9511 41.4116 46.8371 43.2595 46.9881V47.8992H44.2387V46.9881C46.0815 46.8371 47.2515 45.8756 47.2515 44.5517C47.2515 43.2279 46.202 42.3117 44.2387 42.1456V41.2395ZM50.7665 44.6877H53.227V43.8973H50.7816V42.1506H53.5032V41.3603H49.8074V47.8187H53.5986V47.0233H50.7816V44.6877H50.7665ZM58.9263 44.139C58.6912 44.3394 58.3912 44.4468 58.0827 44.441H57.1638V42.1506H58.1681C58.3185 42.1308 58.4715 42.1454 58.6155 42.1933C58.7595 42.2412 58.8907 42.3213 58.9995 42.4273C59.1082 42.5334 59.1915 42.6628 59.2432 42.8058C59.2949 42.9488 59.3136 43.1017 59.2979 43.253C59.3057 43.4196 59.2759 43.5858 59.2107 43.7392C59.1455 43.8926 59.0465 44.0292 58.9213 44.139H58.9263ZM56.1896 41.3603V47.8187H57.1638V45.2263H58.0827C58.6804 45.2306 59.259 45.0157 59.7096 44.6222C59.8935 44.4436 60.0387 44.2289 60.1363 43.9917C60.2339 43.7544 60.2818 43.4996 60.2771 43.243C60.2771 42.0952 59.4535 41.3502 58.1731 41.3502L56.1896 41.3603ZM64.726 43.0265L65.8458 45.478H63.6012L64.7763 43.0265H64.726ZM61.4922 47.8187H62.4965L63.2698 46.2783H66.2827L66.9957 47.8187H68L64.7763 41.023L61.5425 47.8187H61.4922Z" fill="white"/>
</svg>
