<svg width="11" height="8" viewBox="0 0 11 8" fill="none" xmlns="http://www.w3.org/2000/svg">
<path d="M5.5 0C7.92622 0 10.0173 1.43024 10.9779 3.49418C11.0074 3.55672 11.0074 3.62989 10.9779 3.69361C10.0173 5.75754 7.92621 7.18779 5.5 7.18779C3.07379 7.18779 0.982701 5.75755 0.0221262 3.69361C-0.00737572 3.63107 -0.00737572 3.5579 0.0221262 3.49418C0.982701 1.43024 3.07378 0 5.5 0ZM5.5 6.07382C6.87006 6.07382 7.97932 4.96336 7.97932 3.59449C7.97932 2.22443 6.86888 1.11516 5.5 1.11516C4.12994 1.11516 3.02068 2.22561 3.02068 3.59449C3.02068 4.96336 4.13112 6.07382 5.5 6.07382Z" fill="#757575"/>
<path d="M5.50021 5.18049C4.62363 5.18049 3.91302 4.46988 3.91302 3.59329C3.91302 2.71671 4.62363 2.0061 5.50021 2.0061C6.37679 2.0061 7.0874 2.71671 7.0874 3.59329C7.0874 4.46988 6.37679 5.18049 5.50021 5.18049Z" fill="#757575"/>
</svg>
