<svg width="1038" height="108" viewBox="0 0 1038 108" fill="none" xmlns="http://www.w3.org/2000/svg">
<path d="M49.3629 31.3594L66.5326 69.1196H32.2698L49.3629 31.3594ZM0 105.174H15.7133L26.5977 81.4478H72.128L83.0891 105.174H98.4191L49.3629 0.5L0 105.174ZM156.75 105.174V17.8681H187.41V5.69492H111.373V17.8681H142.033V105.174H156.75ZM265.67 107.345L294.031 42.9898L311.124 105.019H326.454L297.25 1.04275L265.67 74.7022L234.244 1.04275L204.657 105.174H219.987L237.08 43.1449L265.364 107.5L265.67 107.345ZM408.93 94.0087C403.996 93.9718 399.12 92.9293 394.593 90.9433C390.066 88.9573 385.981 86.0686 382.582 82.4499C379.184 78.8312 376.541 74.5567 374.813 69.8817C373.084 65.2067 372.305 60.2271 372.521 55.2406C372.295 50.267 373.069 45.2988 374.795 40.6362C376.521 35.9735 379.163 31.7133 382.563 28.1129C385.962 24.5126 390.048 21.6468 394.574 19.6889C399.099 17.7309 403.97 16.7214 408.892 16.7214C413.814 16.7214 418.684 17.7309 423.21 19.6889C427.735 21.6468 431.821 24.5126 435.221 28.1129C438.62 31.7133 441.263 35.9735 442.989 40.6362C444.715 45.2988 445.488 50.267 445.262 55.2406C445.489 60.2233 444.72 65.2011 443 69.8758C441.28 74.5504 438.644 78.8259 435.252 82.4458C431.86 86.0657 427.78 88.9556 423.257 90.9425C418.734 92.9294 413.861 93.9723 408.93 94.0087ZM408.93 4.68696C402.238 4.46669 395.571 5.61951 389.331 8.07598C383.091 10.5325 377.408 14.2417 372.623 18.9801C367.839 23.7184 364.052 29.3877 361.492 35.6463C358.932 41.9048 357.652 48.623 357.728 55.3957C357.562 62.1998 358.784 68.9654 361.318 75.2706C363.851 81.5757 367.642 87.2852 372.453 92.043C377.265 96.8008 382.994 100.505 389.283 102.924C395.572 105.343 402.286 106.426 409.007 106.104C415.696 106.371 422.369 105.248 428.612 102.804C434.856 100.361 440.538 96.6482 445.307 91.8961C450.077 87.144 453.833 81.4533 456.343 75.1754C458.854 68.8975 460.065 62.1657 459.903 55.3957C459.979 48.6162 458.696 41.8914 456.131 35.6275C453.567 29.3636 449.773 23.6907 444.981 18.9512C440.188 14.2118 434.495 10.5042 428.246 8.05256C421.997 5.60089 415.322 4.45599 408.623 4.68696H408.93ZM546.058 4.68696C539.359 4.45599 532.684 5.60089 526.435 8.05256C520.186 10.5042 514.493 14.2118 509.7 18.9512C504.908 23.6907 501.114 29.3636 498.55 35.6275C495.985 41.8914 494.702 48.6162 494.779 55.3957C494.613 62.1998 495.835 68.9654 498.369 75.2706C500.902 81.5757 504.693 87.2852 509.504 92.043C514.316 96.8008 520.044 100.505 526.333 102.924C532.622 105.343 539.337 106.426 546.058 106.104C553.161 106.361 560.239 105.114 566.839 102.444C573.438 99.7735 579.414 95.7385 584.383 90.5971L573.575 82.2232C570.02 86.0173 565.742 89.0446 561 91.1233C556.258 93.2019 551.149 94.2889 545.981 94.3189C536.729 93.1279 528.224 88.5651 522.059 81.4854C515.895 74.4058 512.494 65.2952 512.494 55.8609C512.494 46.4265 515.895 37.316 522.059 30.2363C528.224 23.1567 536.729 18.5939 545.981 17.4029C554.651 17.323 563.03 20.5638 569.436 26.4746L581.01 18.721C576.42 14.0877 570.95 10.442 564.93 8.00346C558.91 5.56494 552.464 4.38404 545.981 4.53186L546.058 4.68696ZM675.29 30.6616C690.62 30.6616 706.41 38.4152 706.41 54.8529C706.41 71.2906 691.923 79.8196 675.29 80.1297V30.6616ZM660.343 80.1297C643.864 80.1297 629.223 70.5153 629.223 54.8529C629.223 39.1906 645.32 30.8942 660.343 30.6616V80.1297ZM675.29 3.83406H660.343V17.7906C630.603 20.3492 614.353 33.2979 614.353 54.8529C614.353 76.408 632.136 90.0544 660.343 92.3805V106.414H675.29V92.3805C703.421 90.0544 721.28 75.245 721.28 54.8529C721.28 34.4609 705.261 20.3492 675.29 17.7906V3.83406ZM774.936 56.9464H812.495V44.7732H775.166V17.8681H816.71V5.69492H760.296V105.174H818.167V92.9232H775.166V56.9464H774.936ZM899.493 48.4949C895.905 51.582 891.325 53.2366 886.615 53.1471H872.588V17.8681H887.918C890.215 17.5627 892.55 17.7875 894.748 18.5257C896.946 19.264 898.95 20.4965 900.61 22.1306C902.269 23.7647 903.542 25.758 904.33 27.9607C905.119 30.1634 905.405 32.5183 905.165 34.8486C905.284 37.4142 904.829 39.974 903.834 42.3369C902.838 44.6999 901.328 46.8049 899.416 48.4949H899.493ZM857.718 5.69492V105.174H872.588V65.2428H886.615C895.738 65.3087 904.571 61.9997 911.45 55.9384C914.256 53.1867 916.473 49.8809 917.963 46.2262C919.453 42.5716 920.184 38.646 920.112 34.6935C920.112 17.0152 907.541 5.53987 887.995 5.53987L857.718 5.69492ZM988.024 31.3594L1005.12 69.1196H970.854L988.79 31.3594H988.024ZM938.661 105.174H953.991L965.795 81.4478H1011.79L1022.67 105.174H1038L988.79 0.5L939.428 105.174H938.661Z" fill="white"/>
</svg>
