<svg width="61" height="60" viewBox="0 0 61 60" fill="none" xmlns="http://www.w3.org/2000/svg">
<g clip-path="url(#clip0_35_234)">
<path d="M11.4277 8.134C11.9134 8.134 12.3066 7.74033 12.3066 7.2551V1.81641C12.3066 1.78436 12.3332 1.75781 12.3652 1.75781H37.5972C37.6292 1.75781 37.6558 1.78436 37.6558 1.81641V19.6111C37.6558 20.0967 38.049 20.49 38.5347 20.49C39.0199 20.49 39.4136 20.0967 39.4136 19.6111V1.81641C39.4136 0.814819 38.5988 0 37.5972 0H12.3652C11.3636 0 10.5488 0.814819 10.5488 1.81641V7.2551C10.5488 7.74033 10.942 8.134 11.4277 8.134Z" fill="#FFCC00"/>
<path d="M52.6631 27.1642C51.597 25.8705 49.8533 25.1564 48.221 25.3477C46.5977 25.5368 45.0894 26.5521 44.2846 27.9964C44.0722 28.3768 43.9125 28.7448 43.7578 29.101C43.6598 29.3257 43.5682 29.5367 43.4712 29.7327C42.8889 29.2241 42.3414 28.6391 42.1689 27.9602C42.0865 27.6379 42.0801 27.2617 42.0732 26.8634C42.0649 26.4038 42.0558 25.8833 41.923 25.361C41.6795 24.4098 41.0336 23.541 40.1501 22.9774C39.1847 22.3631 37.9712 22.1269 36.835 22.3064V20.8475C36.8355 20.8287 36.8355 20.8095 36.835 20.7907V3.45703C36.835 2.97134 36.4413 2.57812 35.9561 2.57812H14.0059C13.5202 2.57812 13.127 2.97134 13.127 3.45703V31.7986C13.127 32.2842 13.5202 32.6775 14.0059 32.6775H32.2061C32.6913 32.6775 33.085 32.2842 33.085 31.7986C33.085 31.3133 32.6913 30.9196 32.2061 30.9196H14.8848V29.4722C16.0846 29.1389 17.3604 29.2511 18.7112 29.3701C19.2495 29.4177 19.8062 29.4667 20.3605 29.4859C22.9762 29.5747 25.0696 28.7727 26.4126 27.1655C26.918 26.5604 27.3172 25.8984 27.7031 25.2585C28.2506 24.3507 28.7674 23.4933 29.5259 22.8918C30.6991 21.9612 32.5197 21.5533 35.0772 21.6504V23.0077C33.7607 23.9575 33.2269 25.6435 33.8344 27.133C34.2216 28.0728 34.9916 28.7027 35.2813 29.3509C35.7817 30.4747 34.6528 31.6553 34.7082 33.4978H12.3652C12.3332 33.4978 12.3066 33.4712 12.3066 33.4392V10.7707C12.3066 10.285 11.913 9.89182 11.4277 9.89182C10.942 9.89182 10.5488 10.285 10.5488 10.7707V33.4392C10.5488 34.4408 11.3636 35.2556 12.3652 35.2556H35.0909C35.8027 36.9475 37.2076 37.6222 37.3765 39.1763C37.5029 40.3455 37.3216 41.4702 37.9451 43.0399C37.9638 43.3443 38.006 43.6473 38.0728 43.9453C38.0874 44.0126 38.1039 44.0794 38.1213 44.1463H37.0414C36.4486 44.1463 35.8847 44.4022 35.4947 44.8489C35.1046 45.2953 34.9266 45.8881 35.0062 46.4758L36.5503 57.87C36.7146 59.0845 37.7629 60 38.9879 60H46.1706C47.3961 60 48.4439 59.0845 48.6087 57.87L50.1523 46.4758C50.2319 45.8881 50.0538 45.2953 49.6638 44.8489C48.9607 44.0442 47.9838 44.1559 47.9316 44.1463C48.0058 43.4798 47.9298 42.8856 47.8419 42.2296C47.4698 39.4551 48.2425 39.8836 49.857 39.1003C50.2942 38.8884 50.4764 38.3629 50.2644 37.9262C50.0525 37.4895 49.527 37.3068 49.0902 37.5188C48.9039 37.6094 48.697 37.6877 48.4778 37.7705C47.6291 38.0905 46.4673 38.5295 46.0974 40.0607C45.8914 40.9126 46.0022 41.7366 46.0997 42.4635C46.1583 42.8998 46.2137 43.3118 46.2022 43.7004C46.1976 43.8487 46.1825 43.998 46.1564 44.1463H44.0613C43.869 39.6419 45.5151 35.0679 48.5469 31.7715C48.8756 31.4145 48.8522 30.8583 48.4947 30.5296C48.1376 30.2014 47.5815 30.2243 47.2528 30.5818C43.9271 34.1982 42.1126 39.207 42.3021 44.1463H39.967C39.7349 43.5516 39.7244 43.168 39.6914 42.773C39.6214 40.0768 41.6314 39.6634 41.799 37.7518C41.9331 36.2274 40.6189 35.1201 40.7054 34.3053C40.8006 33.3943 42.5721 32.9507 43.4895 32.3515C44.9557 31.3925 45.1915 29.9785 45.82 28.8528C46.3546 27.8929 47.3526 27.2186 48.4247 27.0937C49.4619 26.9728 50.621 27.4503 51.3072 28.2829C51.8158 28.8991 51.9046 29.8929 51.5136 30.5942C50.9263 31.6479 49.4555 32.3428 49.7188 34.8413C49.7348 34.9905 49.7554 35.1439 49.776 35.3009L49.7938 35.4355C49.857 35.9171 50.2987 36.2553 50.7794 36.1931C51.2605 36.1304 51.5997 35.6891 51.537 35.2075L51.5187 35.0688C51.2216 32.84 52.1449 33.0725 53.049 31.4497C53.797 30.108 53.6381 28.3456 52.6631 27.1642ZM48.4105 46.2396L46.8664 57.6338C46.8197 57.9803 46.5204 58.2422 46.1706 58.2422H38.9879C38.6381 58.2422 38.3387 57.9808 38.2921 57.6338C36.7471 45.7462 36.634 46.2167 36.819 46.0052C37.003 45.7942 36.5754 45.9686 48.117 45.9036C48.296 45.9036 48.4343 46.0616 48.4105 46.2396ZM28.4337 21.5144C27.4261 22.3137 26.8017 23.3496 26.1979 24.3512C25.8299 24.9609 25.4825 25.5373 25.0641 26.0381C24.0666 27.2314 22.5065 27.7986 20.421 27.729C19.9138 27.7116 19.4047 27.6668 18.8655 27.6192C17.5686 27.5047 16.232 27.3875 14.8848 27.6645V4.33594H35.0772V19.8921C32.1141 19.791 29.9347 20.3242 28.4337 21.5144ZM40.6884 31.7963C40.5017 31.3696 40.309 30.937 40.1117 30.5017C39.9112 30.06 39.3902 29.864 38.9485 30.0645C38.5063 30.265 38.3104 30.7855 38.5109 31.2277C38.7919 31.8484 39.0638 32.4628 39.3211 33.0606C39.1202 33.392 38.9961 33.7491 38.9576 34.1212C38.8629 35.0102 39.2561 35.7349 39.6026 36.3744C39.8475 36.8257 40.0787 37.2519 40.048 37.598C40.0178 37.9422 39.7207 38.3148 39.4063 38.709C39.3156 38.8225 39.2227 38.9392 39.1316 39.0601C39.1293 39.0358 39.127 39.0115 39.1243 38.9873C38.911 37.0235 37.6269 36.1711 36.9009 34.9503C35.5262 32.6413 37.9702 31.068 36.8863 28.6354C36.4766 27.7171 35.7258 27.1097 35.4608 26.4665C35.4292 26.3892 35.404 26.3091 35.3848 26.2262C35.1577 25.2466 35.8549 24.4318 36.6267 24.1631C37.4548 23.8737 38.4678 23.99 39.2053 24.4597C39.7162 24.7856 40.086 25.2727 40.2197 25.7959C40.3021 26.1191 40.3085 26.4954 40.3154 26.8936C40.3236 27.3532 40.3328 27.8737 40.4655 28.3942C40.7502 29.5148 41.5014 30.3424 42.2801 31.0268C42.0672 31.1426 41.8351 31.2465 41.593 31.355C41.2977 31.4868 40.9924 31.6237 40.6884 31.7963Z" fill="#FFCC00"/>
<path d="M25.395 37.7144H10.9549C8.85693 37.7144 7.15039 39.4214 7.15039 41.5188C7.15039 43.6168 8.85693 45.3233 10.9549 45.3233H11.9102L11.1219 48.4347C11.1187 48.4448 11.1165 48.4549 11.1142 48.4654L9.94412 53.0819C9.9368 53.1062 9.93085 53.1309 9.92535 53.1556L8.46875 58.9052C8.34927 59.3757 8.634 59.8541 9.10504 59.9731C9.17737 59.9914 9.24969 60.0001 9.32156 60.0001C9.71387 60.0001 10.0718 59.7351 10.1725 59.3368L11.5225 54.0103L18.1747 51.7247L24.8279 54.0107L26.1773 59.3368C26.278 59.7351 26.636 60.0001 27.0288 60.0001C27.1002 60.0001 27.173 59.9914 27.2453 59.9731C27.7159 59.8536 28.0006 59.3757 27.8816 58.9052L26.4195 53.136C26.4167 53.1245 26.414 53.1126 26.4108 53.1016L24.4397 45.3233H25.395C27.493 45.3233 29.1995 43.6168 29.1995 41.5188C29.1995 39.4214 27.493 37.7144 25.395 37.7144ZM12.0379 51.9746L12.5882 49.8048L15.4702 50.7954L12.0379 51.9746ZM20.8792 50.7954L23.7617 49.8048L24.3115 51.9746L20.8792 50.7954ZM23.3287 48.0951L18.1747 49.8657L13.0212 48.0951L13.7234 45.3233H22.626L23.3287 48.0951ZM25.395 43.5655H13.056C13.0455 43.565 13.0354 43.5655 13.0253 43.5655H10.9549C9.82602 43.5655 8.9082 42.6472 8.9082 41.5188C8.9082 40.3904 9.82602 39.4722 10.9549 39.4722H25.395C26.5234 39.4722 27.4417 40.3904 27.4417 41.5188C27.4417 42.6472 26.5234 43.5655 25.395 43.5655Z" fill="#FFCC00"/>
<path d="M20.3333 5.5166C18.4057 5.5166 16.8369 7.08536 16.8369 9.013C16.8369 10.9406 18.4057 12.5089 20.3333 12.5089C22.261 12.5089 23.8293 10.9406 23.8293 9.013C23.8293 7.08536 22.261 5.5166 20.3333 5.5166ZM20.3333 10.7511C19.3748 10.7511 18.5947 9.97156 18.5947 9.013C18.5947 8.05444 19.3748 7.27441 20.3333 7.27441C21.2919 7.27441 22.0714 8.05444 22.0714 9.013C22.0714 9.97156 21.2919 10.7511 20.3333 10.7511Z" fill="#FFCC00"/>
</g>
<defs>
<clipPath id="clip0_35_234">
<rect width="60" height="60" fill="white" transform="translate(0.353516)"/>
</clipPath>
</defs>
</svg>
