<svg width="61" height="61" viewBox="0 0 61 61" fill="none" xmlns="http://www.w3.org/2000/svg">
<path fill-rule="evenodd" clip-rule="evenodd" d="M30.0215 58.5C45.4855 58.5 58.0215 45.964 58.0215 30.5C58.0215 15.036 45.4855 2.5 30.0215 2.5C14.5575 2.5 2.02148 15.036 2.02148 30.5C2.02148 45.964 14.5575 58.5 30.0215 58.5ZM30.0215 60.5C46.59 60.5 60.0215 47.0685 60.0215 30.5C60.0215 13.9315 46.59 0.5 30.0215 0.5C13.4529 0.5 0.0214844 13.9315 0.0214844 30.5C0.0214844 47.0685 13.4529 60.5 30.0215 60.5Z" fill="#FFCC00"/>
<path d="M25.9587 38.0935C26.3491 38.4839 26.9821 38.4839 27.3725 38.0935L41.2715 24.1946C41.6552 23.7973 41.6442 23.1644 41.247 22.7807C40.8595 22.4064 40.2452 22.4064 39.8576 22.7807L26.6656 35.9727L20.716 30.0231C20.3188 29.6395 19.6857 29.6504 19.3022 30.0476C18.9279 30.4351 18.9279 31.0494 19.3022 31.437L25.9587 38.0935Z" fill="#FFCC00"/>
</svg>
