<svg width="61" height="60" viewBox="0 0 61 60" fill="none" xmlns="http://www.w3.org/2000/svg">
<path d="M9.12793 38.4375C8.57167 38.4375 8.0279 38.6025 7.56539 38.9115C7.10288 39.2205 6.74239 39.6598 6.52952 40.1737C6.31665 40.6876 6.26095 41.2531 6.36947 41.7987C6.47799 42.3443 6.74586 42.8454 7.13919 43.2387C7.53253 43.6321 8.03367 43.8999 8.57924 44.0085C9.12481 44.117 9.69031 44.0613 10.2042 43.8484C10.7181 43.6355 11.1574 43.2751 11.4664 42.8125C11.7755 42.35 11.9404 41.8063 11.9404 41.25C11.9396 40.5043 11.643 39.7895 11.1157 39.2622C10.5885 38.7349 9.8736 38.4383 9.12793 38.4375ZM9.12793 42.1875C8.94251 42.1875 8.76125 42.1325 8.60708 42.0295C8.45291 41.9265 8.33275 41.7801 8.26179 41.6088C8.19084 41.4375 8.17227 41.249 8.20844 41.0671C8.24462 40.8852 8.33391 40.7182 8.46502 40.5871C8.59613 40.456 8.76318 40.3667 8.94503 40.3305C9.12689 40.2943 9.31539 40.3129 9.4867 40.3839C9.658 40.4548 9.80442 40.575 9.90743 40.7292C10.0104 40.8833 10.0654 41.0646 10.0654 41.25C10.0652 41.4986 9.96629 41.7369 9.79053 41.9126C9.61478 42.0884 9.37649 42.1872 9.12793 42.1875Z" fill="#FFCC00"/>
<path d="M44.7529 38.4375C44.1967 38.4375 43.6529 38.6025 43.1904 38.9115C42.7279 39.2205 42.3674 39.6598 42.1545 40.1737C41.9416 40.6876 41.886 41.2531 41.9945 41.7987C42.103 42.3443 42.3709 42.8454 42.7642 43.2387C43.1575 43.6321 43.6587 43.8999 44.2042 44.0085C44.7498 44.117 45.3153 44.0613 45.8292 43.8484C46.3431 43.6355 46.7824 43.2751 47.0914 42.8125C47.4005 42.35 47.5654 41.8063 47.5654 41.25C47.5646 40.5043 47.268 39.7895 46.7408 39.2622C46.2135 38.7349 45.4986 38.4383 44.7529 38.4375ZM44.7529 42.1875C44.5675 42.1875 44.3863 42.1325 44.2321 42.0295C44.0779 41.9265 43.9578 41.7801 43.8868 41.6088C43.8158 41.4375 43.7973 41.249 43.8334 41.0671C43.8696 40.8852 43.9589 40.7182 44.09 40.5871C44.2211 40.456 44.3882 40.3667 44.57 40.3305C44.7519 40.2943 44.9404 40.3129 45.1117 40.3839C45.283 40.4548 45.4294 40.575 45.5324 40.7292C45.6355 40.8833 45.6904 41.0646 45.6904 41.25C45.6902 41.4986 45.5913 41.7369 45.4155 41.9126C45.2398 42.0884 45.0015 42.1872 44.7529 42.1875Z" fill="#FFCC00"/>
<path d="M51.3154 41.25C51.3154 40.3788 51.1419 39.5163 50.8051 38.7129C50.4683 37.9094 49.9749 37.181 49.3536 36.5703C48.7323 35.9595 47.9957 35.4785 47.1866 35.1555C46.3775 34.8324 45.5122 34.6736 44.6411 34.6885C41.0842 34.7479 38.1904 37.7329 38.1904 41.3426V44.492C35.6222 43.793 31.8767 43.125 26.9404 43.125C22.0041 43.125 18.2586 43.793 15.6904 44.492V41.25C15.6904 40.3668 15.5121 39.4926 15.1662 38.6799C14.8203 37.8672 14.3139 37.1327 13.6773 36.5204C13.0408 35.9081 12.2872 35.4306 11.4617 35.1165C10.6361 34.8024 9.75572 34.6582 8.87313 34.6924C7.22381 34.7619 5.66074 35.4483 4.49346 36.6156C3.32618 37.7829 2.63982 39.3459 2.57032 40.9953C2.50775 42.6161 3.04731 44.2027 4.08502 45.4493C5.12273 46.6959 6.58514 47.5143 8.1904 47.7468V51.5625C8.19152 52.5567 8.58696 53.5099 9.28998 54.2129C9.993 54.916 10.9462 55.3114 11.9404 55.3125V58.125C11.9404 58.3737 12.0392 58.6121 12.215 58.7879C12.3908 58.9637 12.6293 59.0625 12.8779 59.0625H15.6904C15.8645 59.0625 16.0351 59.014 16.1832 58.9225C16.3313 58.831 16.451 58.7 16.5289 58.5443L18.1448 55.3125H35.736L37.3519 58.5443C37.4298 58.7 37.5495 58.831 37.6976 58.9225C37.8457 59.014 38.0163 59.0625 38.1904 59.0625H41.0029C41.2515 59.0625 41.49 58.9637 41.6658 58.7879C41.8416 58.6121 41.9404 58.3737 41.9404 58.125V55.3125C42.9346 55.3114 43.8878 54.916 44.5908 54.2129C45.2938 53.5099 45.6893 52.5567 45.6904 51.5625V47.7457C47.2515 47.5183 48.6787 46.7369 49.7114 45.5444C50.7441 44.3518 51.3134 42.8276 51.3154 41.25ZM15.111 57.1875H13.8154V55.3125H16.0485L15.111 57.1875ZM40.0654 57.1875H38.7698L37.8323 55.3125H40.0654V57.1875ZM44.7529 45.9375C44.5043 45.9375 44.2658 46.0363 44.09 46.2121C43.9142 46.3879 43.8154 46.6264 43.8154 46.875V51.5625C43.8148 52.0596 43.6171 52.5362 43.2656 52.8877C42.9141 53.2392 42.4375 53.4369 41.9404 53.4375H11.9404C11.4433 53.4369 10.9667 53.2392 10.6152 52.8877C10.2637 52.5362 10.066 52.0596 10.0654 51.5625V46.875C10.0654 46.6264 9.96663 46.3879 9.79081 46.2121C9.615 46.0363 9.37654 45.9375 9.1279 45.9375C8.49687 45.9375 7.87234 45.8101 7.29174 45.563C6.71113 45.3158 6.18641 44.9539 5.74903 44.4991C5.31164 44.0442 4.9706 43.5058 4.74633 42.9159C4.52207 42.3261 4.41921 41.697 4.44391 41.0665C4.49359 39.889 4.98364 38.773 5.81703 37.9396C6.65042 37.1062 7.76637 36.6162 8.94392 36.5665C9.57446 36.5417 10.2035 36.6445 10.7934 36.8687C11.3832 37.0929 11.9217 37.4339 12.3766 37.8713C12.8315 38.3086 13.1934 38.8333 13.4407 39.4139C13.6879 39.9945 13.8153 40.619 13.8154 41.25V45.0703C12.3375 45.586 11.5609 46.0128 11.4808 46.0579L12.398 47.6932C12.4464 47.6663 17.3536 45 26.9404 45C36.5272 45 41.4344 47.6663 41.4808 47.6922L42.4 46.0579C42.3199 46.0128 41.5433 45.5855 40.0654 45.0703V41.3426C40.0654 38.7497 42.1321 36.6057 44.6724 36.5632C45.2913 36.5525 45.9062 36.6645 46.4816 36.8927C47.0571 37.1209 47.5816 37.4608 48.0249 37.8928C48.4683 38.3248 48.8217 38.8403 49.0647 39.4097C49.3077 39.979 49.4356 40.5908 49.4409 41.2098C49.4462 41.8288 49.3289 42.4427 49.0957 43.0161C48.8624 43.5895 48.518 44.111 48.0821 44.5506C47.6462 44.9901 47.1276 45.339 46.5562 45.577C45.9848 45.8151 45.3719 45.9376 44.7529 45.9375Z" fill="#FFCC00"/>
<path d="M10.0654 28.125C10.066 27.6279 10.2638 27.1513 10.6153 26.7998C10.9668 26.4483 11.4433 26.2506 11.9404 26.25H41.9404C42.4375 26.2506 42.9141 26.4483 43.2656 26.7998C43.6171 27.1513 43.8148 27.6279 43.8154 28.125V32.8125H45.6904V28.125C45.6893 27.1308 45.2939 26.1776 44.5908 25.4746C43.8878 24.7716 42.9347 24.3761 41.9404 24.375H11.9404C10.9462 24.3761 9.99303 24.7716 9.29001 25.4746C8.58699 26.1776 8.19155 27.1308 8.19043 28.125V32.8125H10.0654V28.125Z" fill="#FFCC00"/>
<path d="M21.3154 30H23.1904V31.875H21.3154V30Z" fill="#FFCC00"/>
<path d="M26.0029 34.6875H27.8779V36.5625H26.0029V34.6875Z" fill="#FFCC00"/>
<path d="M16.6279 34.6875H18.5029V36.5625H16.6279V34.6875Z" fill="#FFCC00"/>
<path d="M21.3154 39.375H23.1904V41.25H21.3154V39.375Z" fill="#FFCC00"/>
<path d="M30.6904 30H32.5654V31.875H30.6904V30Z" fill="#FFCC00"/>
<path d="M35.3779 34.6875H37.2529V36.5625H35.3779V34.6875Z" fill="#FFCC00"/>
<path d="M30.6904 39.375H32.5654V41.25H30.6904V39.375Z" fill="#FFCC00"/>
<path d="M55.0654 0.9375H28.8154C27.8212 0.938617 26.868 1.33406 26.165 2.03708C25.462 2.7401 25.0665 3.69328 25.0654 4.6875V5.625H26.9404V4.6875C26.941 4.1904 27.1388 3.71383 27.4903 3.36233C27.8418 3.01082 28.3183 2.81309 28.8154 2.8125H41.0029V22.5H42.8779V2.8125H55.0654C55.5625 2.81309 56.0391 3.01082 56.3906 3.36233C56.7421 3.71383 56.9398 4.1904 56.9404 4.6875V51.5625C56.9398 52.0596 56.7421 52.5362 56.3906 52.8877C56.0391 53.2392 55.5625 53.4369 55.0654 53.4375H46.6279V55.3125H48.8611L50.477 58.5443C50.5548 58.7 50.6745 58.831 50.8226 58.9225C50.9707 59.014 51.1413 59.0625 51.3154 59.0625H54.1279C54.3766 59.0625 54.615 58.9637 54.7908 58.7879C54.9667 58.6121 55.0654 58.3736 55.0654 58.125V55.3125C56.0596 55.3114 57.0128 54.9159 57.7158 54.2129C58.4189 53.5099 58.8143 52.5567 58.8154 51.5625V4.6875C58.8143 3.69328 58.4189 2.7401 57.7158 2.03708C57.0128 1.33406 56.0596 0.938617 55.0654 0.9375ZM53.1904 57.1875H51.8948L50.9573 55.3125H53.1904V57.1875Z" fill="#FFCC00"/>
<path d="M9.12789 20.625H17.5654V22.5H19.4404V20.625H27.8779C28.0076 20.625 28.1358 20.5981 28.2546 20.546C28.3733 20.4939 28.48 20.4177 28.5678 20.3222C28.6556 20.2268 28.7226 20.1142 28.7647 19.9915C28.8067 19.8689 28.8229 19.7388 28.8121 19.6096L27.8746 8.35957C27.8551 8.12524 27.7482 7.90681 27.5751 7.7476C27.4021 7.58838 27.1755 7.50001 26.9404 7.5H19.4404V5.625H17.5654V7.5H10.0654C9.83025 7.50001 9.6037 7.58838 9.43065 7.7476C9.25761 7.90681 9.15072 8.12524 9.13117 8.35957L8.19367 19.6096C8.18289 19.7388 8.19904 19.8689 8.2411 19.9915C8.28315 20.1142 8.3502 20.2268 8.438 20.3222C8.5258 20.4177 8.63245 20.4939 8.7512 20.546C8.86995 20.5981 8.99821 20.625 9.12789 20.625ZM10.928 9.375H26.0778L26.8591 18.75H10.1467L10.928 9.375Z" fill="#FFCC00"/>
</svg>
