<svg width="61" height="60" viewBox="0 0 61 60" fill="none" xmlns="http://www.w3.org/2000/svg">
<path d="M50.9961 32.8125C50.9961 31.2188 49.3086 30 47.2461 30C45.1836 30 43.4961 31.2188 43.4961 32.8125V35.625L38.9023 33.6563C40.0273 32.625 40.7773 31.3125 41.2461 29.9062L43.7773 28.5938C44.7148 28.125 45.3711 27.1875 45.3711 26.0625V24.375C45.3711 22.7812 44.1523 21.5625 42.5586 21.5625H42.1836L41.6211 22.125V19.6875H43.4961V16.875C43.4961 11.0625 39.6523 5.90625 34.1211 4.3125C33.9336 2.90625 32.7148 1.875 31.3086 1.875H29.4336C28.0273 1.875 26.8086 2.90625 26.6211 4.3125C21.0898 5.90625 17.2461 11.0625 17.2461 16.875V19.6875H19.1211V22.125L18.5586 21.5625H18.1836C16.5898 21.5625 15.3711 22.7812 15.3711 24.375V26.0625C15.3711 27.0938 15.9336 28.125 16.9648 28.5938L19.4961 29.9062C19.9648 31.3125 20.7148 32.625 21.8398 33.6563L14.0586 37.0312C10.3086 38.7188 7.87109 42.375 7.87109 46.5V58.125H54.7461V30.8438L50.9961 36.0938V32.8125ZM45.3711 43.875V35.25C46.5898 35.7188 47.9023 35.7188 49.1211 35.25V38.625L45.3711 43.875ZM47.2461 31.875C48.3711 31.875 49.1211 32.4375 49.1211 32.8125C49.1211 33.1875 48.3711 33.75 47.2461 33.75C46.1211 33.75 45.3711 33.1875 45.3711 32.8125C45.3711 32.4375 46.1211 31.875 47.2461 31.875ZM43.4961 40.0312L37.4023 44.5312C36.9336 44.8125 36.2773 45 35.7148 45H32.5273L32.8086 43.875C32.9023 43.5 33.2773 43.125 33.7461 43.125H35.0586C36.5586 43.125 37.9648 42.375 38.9023 41.1562L41.9023 36.9375L43.5898 37.6875V40.0312H43.4961ZM31.0273 43.4062L30.3711 45.8438L29.7148 43.4062C29.4336 42.0938 28.3086 41.25 26.9961 41.25H25.6836C24.7461 41.25 23.9023 40.7812 23.4336 40.0312L20.6211 36.0938L23.5273 34.7812L26.2461 36.2812C28.7773 37.6875 31.7773 37.6875 34.3086 36.2812L37.0273 34.7812L39.9336 36.0938L37.1211 40.0312C36.5586 40.7812 35.7148 41.25 34.8711 41.25H33.5586C32.4336 41.25 31.3086 42.0938 31.0273 43.4062ZM28.2148 45H25.0273C24.4648 45 23.8086 44.8125 23.3398 44.4375L15.1836 38.5312L18.8398 36.9375L21.8398 41.1562C22.6836 42.375 24.1836 43.125 25.6836 43.125H26.9961C27.4648 43.125 27.8398 43.4062 27.9336 43.875L28.2148 45ZM42.9336 23.5312C43.3086 23.625 43.4961 24 43.4961 24.375V26.0625C43.4961 26.4375 43.3086 26.7188 42.9336 26.9062L41.6211 27.5625V27.4688V24.8438L42.9336 23.5312ZM19.3086 17.8125C19.6836 16.6875 20.7148 15.9375 21.9336 15.9375H38.8086C40.0273 15.9375 41.0586 16.6875 41.4336 17.8125H19.3086ZM26.6211 6.28125V12.1875H28.4961V4.6875C28.4961 4.125 28.8711 3.75 29.4336 3.75H31.3086C31.8711 3.75 32.2461 4.125 32.2461 4.6875V12.1875H34.1211V6.28125C37.9648 7.59375 40.7773 10.875 41.4336 14.9062C40.6836 14.3438 39.7461 14.0625 38.8086 14.0625H21.9336C20.9961 14.0625 20.0586 14.3438 19.3086 14.9062C19.9648 10.875 22.7773 7.59375 26.6211 6.28125ZM17.8086 26.9062C17.5273 26.7188 17.2461 26.4375 17.2461 26.0625V24.375C17.2461 24 17.5273 23.625 17.8086 23.5312L19.1211 24.8438V27.4688V27.5625L17.8086 26.9062ZM20.9961 27.4688V19.6875H39.7461V27.4688C39.7461 29.9062 38.4336 32.0625 36.3711 33.1875L33.5586 34.6875C31.5898 35.7188 29.2461 35.7188 27.2773 34.6875L24.4648 33.1875C22.3086 32.0625 20.9961 29.8125 20.9961 27.4688ZM9.74609 46.4062C9.74609 43.5938 11.1523 41.0625 13.4023 39.4688L22.3086 45.9375C23.1523 46.5 24.0898 46.875 25.0273 46.875H29.4336V56.25H26.6211V48.75H19.8711L19.1211 45.75L17.2461 46.125L17.9023 48.75H16.3086V56.25H9.74609V46.4062ZM24.7461 50.625V52.5H18.1836V50.625H24.7461ZM18.1836 54.375H24.7461V56.25H18.1836V54.375ZM31.3086 56.25V46.875H35.7148C36.7461 46.875 37.6836 46.5938 38.4336 45.9375L43.4961 42.2812V46.4062L36.4648 56.25H31.3086ZM52.8711 36.6562V56.25H38.8086L50.9961 39.375V39.2812L52.8711 36.6562Z" fill="#FFCC00"/>
<path d="M50.9961 54.375V41.9062L42.6523 54.375H50.9961ZM49.1211 52.5H46.2148L49.1211 48.0937V52.5Z" fill="#FFCC00"/>
</svg>
