<svg width="61" height="60" viewBox="0 0 61 60" fill="none" xmlns="http://www.w3.org/2000/svg">
<g clip-path="url(#clip0_35_194)">
<path d="M55.5909 9.39645H50.8772V4.5416C50.8772 2.03742 48.8398 0 46.3355 0C43.8312 0 41.7938 2.03742 41.7938 4.5416V9.39645H12.2928V7.53469C12.2928 6.24457 11.2431 5.19492 9.95301 5.19492H6.58152C3.78016 5.19492 1.50098 7.47398 1.50098 10.2755V49.7184V49.719C1.50098 49.719 1.50098 49.7194 1.50098 49.7196C1.50098 52.5239 3.7825 54.8053 6.58668 54.8053H42.9666L44.1487 58.4153C44.4641 59.3778 45.3224 60 46.3355 60C47.3486 60 48.207 59.3779 48.5221 58.4152L49.7042 54.8051H55.5907C57.2364 54.8051 58.5753 53.4662 58.5753 51.8205V12.381C58.5754 10.7353 57.2365 9.39645 55.5909 9.39645ZM43.5516 49.3284V13.1787H45.4566V49.3283H43.5516V49.3284ZM43.5516 11.4209V9.12984H49.1194V11.4209H43.5516ZM46.3355 1.75781C47.8705 1.75781 49.1194 3.00668 49.1194 4.5416V7.37203H43.5516V4.5416C43.5516 3.00668 44.8006 1.75781 46.3355 1.75781ZM3.25891 10.2754C3.25891 8.44324 4.74953 6.95262 6.58164 6.95262H9.95312C10.274 6.95262 10.5351 7.21371 10.5351 7.53457V44.0557C10.5351 44.3766 10.274 44.6377 9.95312 44.6377H6.58164C5.31238 44.6377 4.15035 45.1056 3.25891 45.8778V10.2754ZM6.58691 53.0473C4.75188 53.0473 3.25902 51.5544 3.25902 49.7194V49.7183C3.25902 47.8862 4.74965 46.3956 6.58176 46.3956H9.95324C11.2434 46.3956 12.293 45.3459 12.293 44.0558V11.1543H41.794V50.2072C41.794 50.8811 41.9003 51.5476 42.1101 52.1883L42.3913 53.0473H6.58691ZM46.8516 57.8682C46.7411 58.2057 46.4539 58.2422 46.3356 58.2422C46.2174 58.2422 45.9302 58.2057 45.8196 57.8681C45.7168 57.5579 43.7164 51.4976 43.6363 51.0861H49.0349C48.9555 51.4942 46.96 57.5411 46.8516 57.8682ZM56.8176 51.8207C56.8176 52.4971 56.2673 53.0474 55.5909 53.0474H50.2799L50.5612 52.1884C50.7709 51.5477 50.8772 50.8813 50.8772 50.2073V20.9473C50.8772 20.4619 50.4838 20.0684 49.9983 20.0684C49.5128 20.0684 49.1194 20.4619 49.1194 20.9473V49.3283H47.2144V13.1787H49.1194V16.8387C49.1194 17.3241 49.5128 17.7176 49.9983 17.7176C50.4838 17.7176 50.8772 17.3241 50.8772 16.8387V11.1543H55.5909C56.2672 11.1543 56.8176 11.7046 56.8176 12.381V51.8207Z" fill="#FFCC00"/>
<path d="M37.3963 22.929L28.7446 17.9339C28.0054 17.5071 27.0868 17.5071 26.3475 17.9339L17.6958 22.929C16.9593 23.3541 16.4972 24.1482 16.4972 25.0048V28.1779C16.4972 28.6633 16.8906 29.0568 17.3761 29.0568C17.8616 29.0568 18.255 28.6633 18.255 28.1779V25.6505L26.6671 30.5073V40.2207L18.5746 35.5484C18.3773 35.4346 18.2549 35.2224 18.2549 34.9948V32.2864C18.2549 31.801 17.8615 31.4075 17.376 31.4075C16.8905 31.4075 16.4971 31.801 16.4971 32.2864V34.9948C16.4971 35.8484 16.9563 36.6439 17.6957 37.0707L26.3475 42.0658C27.0867 42.4926 28.0051 42.4925 28.7445 42.0658L37.3961 37.0707C38.1355 36.6439 38.5948 35.8484 38.5948 34.9947V25.0046C38.5949 24.1517 38.1357 23.3558 37.3963 22.929ZM27.2263 19.4562C27.4236 19.3423 27.6686 19.3425 27.8657 19.4562L35.9582 24.1285L27.5461 28.9852L19.134 24.1285L27.2263 19.4562ZM36.5174 35.5487L28.4249 40.2209V30.5074L36.837 25.6507V34.995C36.8371 35.2227 36.7146 35.4348 36.5174 35.5487Z" fill="#FFCC00"/>
</g>
<defs>
<clipPath id="clip0_35_194">
<rect width="60" height="60" fill="white" transform="translate(0.0380859)"/>
</clipPath>
</defs>
</svg>
