<svg width="61" height="60" viewBox="0 0 61 60" fill="none" xmlns="http://www.w3.org/2000/svg">
<g clip-path="url(#clip0_35_97)">
<path d="M53.2395 36.191H51.901V29.0657C51.901 26.4052 49.7364 24.2406 47.0758 24.2406H45.4586L50.1751 15.3072C50.6663 14.3769 50.7654 13.3112 50.4539 12.3064C50.1421 11.3005 49.4564 10.4763 48.523 9.98559L30.386 0.452782C28.4626 -0.558331 26.0727 0.181253 25.0588 2.10117L13.3698 24.2406H10.4579C7.79731 24.2406 5.63281 26.4052 5.63281 29.0657V55.1748C5.63281 57.8354 7.79731 60 10.4579 60H47.0759C49.7365 60 51.9011 57.8354 51.9011 55.1748V48.0495H53.2396C53.8869 48.0495 54.4115 47.5248 54.4115 46.8776V37.3629C54.4114 36.7156 53.8868 36.191 53.2395 36.191ZM27.1314 3.19549C27.5429 2.41618 28.5137 2.11653 29.2955 2.52739L47.4328 12.0602C47.8112 12.2591 48.0892 12.5929 48.2154 13.0002C48.3412 13.4061 48.3011 13.8368 48.1026 14.2129L42.8083 24.2406H39.6626L42.6528 18.577C42.7981 18.3017 42.828 17.9802 42.7358 17.6828C42.6437 17.3857 42.4371 17.1373 42.1617 16.9925C41.394 16.589 40.8299 15.9114 40.5738 15.0847C40.3182 14.2601 40.3995 13.3853 40.8028 12.6214C40.9481 12.3461 40.978 12.0246 40.8857 11.7273C40.7936 11.4301 40.587 11.1817 40.3116 11.0369L34.1611 7.80433C33.5891 7.50374 32.8814 7.72277 32.5795 8.29454C31.7452 9.87496 29.7768 10.4829 28.1921 9.65019C27.6201 9.3496 26.9124 9.56874 26.6105 10.1404L19.166 24.2404H16.0202L27.1314 3.19549ZM38.335 15.7786C38.6587 16.823 39.267 17.7294 40.0892 18.4126L37.0123 24.2406H21.8164L28.1944 12.1604C30.3052 12.7519 32.5913 12.0454 33.9967 10.3659L38.2908 12.6228C38.0006 13.6482 38.012 14.7366 38.335 15.7786ZM49.5573 55.1748C49.5573 56.5431 48.4441 57.6562 47.0759 57.6562H10.4579C9.08968 57.6562 7.97661 56.5431 7.97661 55.1748V29.0657C7.97661 27.6974 9.08968 26.5843 10.4579 26.5843H47.0759C48.4441 26.5843 49.5573 27.6974 49.5573 29.0657V36.191H44.9815C41.7122 36.191 39.0522 38.8508 39.0522 42.1203C39.0522 45.3898 41.712 48.0497 44.9815 48.0497H49.5573V55.1748ZM52.0676 45.7057H44.9814C43.0043 45.7057 41.3959 44.0972 41.3959 42.1202C41.3959 40.1432 43.0043 38.5347 44.9814 38.5347H52.0676V45.7057Z" fill="#FFCC00"/>
</g>
<defs>
<clipPath id="clip0_35_97">
<rect width="60" height="60" fill="white" transform="translate(0.0224609)"/>
</clipPath>
</defs>
</svg>
