<svg width="61" height="60" viewBox="0 0 61 60" fill="none" xmlns="http://www.w3.org/2000/svg">
<path d="M34.6663 55.9957C46.8157 55.9957 56.6647 46.1467 56.6647 33.9974C56.6647 21.848 46.8157 11.999 34.6663 11.999C22.517 11.999 12.668 21.848 12.668 33.9974C12.6817 46.141 22.5226 55.982 34.6663 55.9957ZM17.6676 32.9974H14.7188C15.24 22.7566 23.4255 14.5711 33.6664 14.0499V16.9986C33.6664 17.5509 34.1141 17.9986 34.6663 17.9986C35.2185 17.9986 35.6662 17.5509 35.6662 16.9986V14.0499C45.9071 14.5711 54.0926 22.7566 54.6138 32.9974H50.6651C50.1129 32.9974 49.6652 33.4452 49.6652 33.9974C49.6652 34.5496 50.1129 34.9973 50.6651 34.9973H54.6138C54.0926 45.238 45.9071 53.4237 35.6662 53.9449V50.9961C35.6662 50.4439 35.2185 49.9962 34.6663 49.9962C34.1141 49.9962 33.6664 50.4439 33.6664 50.9961V53.9449C23.4257 53.4237 15.24 45.2382 14.7188 34.9973H17.6676C18.2198 34.9973 18.6675 34.5496 18.6675 33.9974C18.6675 33.4452 18.2198 32.9974 17.6676 32.9974Z" fill="#FFCC00"/>
<path d="M57.1792 21.0157C56.8811 20.4992 56.5653 19.9932 56.2323 19.4985L58.7011 17.0297C59.0915 16.6393 59.0915 16.0063 58.7011 15.6158L53.0515 9.96625C52.6611 9.57591 52.0281 9.57591 51.6376 9.96625L49.1648 12.4311C45.1649 9.73052 40.4887 8.20401 35.6658 8.0244V1.99985H42.6653C43.2175 1.99985 43.6652 1.55213 43.6652 0.999925C43.6652 0.447716 43.2175 0 42.6653 0H26.6665C26.1143 0 25.6666 0.447716 25.6666 0.999925C25.6666 1.55213 26.1143 1.99985 26.6665 1.99985H33.666V8.0334C24.7482 8.37387 16.6298 13.2698 12.1676 20.9984H6.66802C6.11581 20.9984 5.66809 21.4461 5.66809 21.9983C5.66809 22.5506 6.11581 22.9983 6.66802 22.9983H12.6676C12.6936 22.9983 12.7156 22.9853 12.7416 22.9833C13.1019 22.9879 13.4361 22.7964 13.6145 22.4833C19.9764 10.8562 34.5593 6.58776 46.1866 12.9495C57.8138 19.3113 62.082 33.8945 55.7202 45.5216C49.3583 57.1487 34.7754 61.4171 23.1482 55.0554C19.1245 52.8538 15.816 49.5453 13.6144 45.5216C13.4378 45.2072 13.104 45.0137 12.7434 45.0166C12.7174 45.0166 12.6944 45.0016 12.6674 45.0016H6.66789C6.11569 45.0016 5.66797 45.4493 5.66797 46.0015C5.66797 46.5538 6.11569 47.0015 6.66789 47.0015H12.1675C19.3433 59.431 35.2366 63.6902 47.6662 56.5144C60.0959 49.3385 64.3549 33.4452 57.1792 21.0157ZM50.7988 13.6327L52.3445 12.0871L56.5801 16.3228L55.0323 17.8707C53.7874 16.3013 52.367 14.8794 50.7988 13.6327Z" fill="#FFCC00"/>
<path d="M10.6682 33.9975C10.6682 33.4453 10.2205 32.9976 9.66827 32.9976H1.66887C1.11666 32.9976 0.668945 33.4453 0.668945 33.9975C0.668945 34.5497 1.11666 34.9974 1.66887 34.9974H9.66827C10.2205 34.9974 10.6682 34.5497 10.6682 33.9975Z" fill="#FFCC00"/>
<path d="M3.66887 28.9979H10.6683C11.2206 28.9979 11.6683 28.5502 11.6683 27.998C11.6683 27.4458 11.2206 26.998 10.6683 26.998H3.66887C3.11666 26.998 2.66895 27.4458 2.66895 27.998C2.66895 28.5502 3.11654 28.9979 3.66887 28.9979Z" fill="#FFCC00"/>
<path d="M11.6683 39.997C11.6683 39.4448 11.2206 38.9971 10.6683 38.9971H3.66887C3.11666 38.9971 2.66895 39.4448 2.66895 39.997C2.66895 40.5492 3.11666 40.9969 3.66887 40.9969H10.6683C11.2206 40.9969 11.6683 40.5492 11.6683 39.997Z" fill="#FFCC00"/>
<path d="M31.9596 40.7039C32.3501 41.0942 32.9831 41.0942 33.3735 40.7039L47.2725 26.8049C47.6562 26.4077 47.6452 25.7747 47.248 25.391C46.8605 25.0168 46.2462 25.0168 45.8586 25.391L32.6666 38.583L26.717 32.6335C26.3198 32.2499 25.6867 32.2608 25.3031 32.658C24.9289 33.0454 24.9289 33.6598 25.3031 34.0474L31.9596 40.7039Z" fill="#FFCC00"/>
</svg>
