<svg width="98" height="11" viewBox="0 0 98 11" fill="none" xmlns="http://www.w3.org/2000/svg">
<path d="M4.66058 3.72532L6.28161 7.25128H3.04679L4.66058 3.72532ZM0.00012207 10.6179H1.48365L2.51127 8.40246H6.80989L7.84474 10.6179H9.29209L4.66058 0.84375L0.00012207 10.6179ZM14.7992 10.6179V2.46554H17.6939V1.32884H10.5151V2.46554H13.4098V10.6179H14.7992ZM25.0826 10.8207L27.7602 4.81135L29.374 10.6035H30.8214L28.0642 0.894431L25.0826 7.77257L22.1156 0.894431L19.3222 10.6179H20.7696L22.3833 4.82583L25.0537 10.8351L25.0826 10.8207ZM38.6081 9.57536C38.1423 9.57192 37.6819 9.47457 37.2545 9.28912C36.8271 9.10367 36.4414 8.83394 36.1206 8.49603C35.7997 8.15812 35.5502 7.75898 35.387 7.32244C35.2238 6.8859 35.1502 6.42092 35.1707 5.95529C35.1493 5.49087 35.2224 5.02695 35.3853 4.59157C35.5483 4.15618 35.7978 3.75837 36.1187 3.42218C36.4397 3.08598 36.8254 2.81839 37.2527 2.63556C37.6799 2.45273 38.1398 2.35847 38.6045 2.35847C39.0692 2.35847 39.529 2.45273 39.9563 2.63556C40.3835 2.81839 40.7693 3.08598 41.0903 3.42218C41.4112 3.75837 41.6607 4.15618 41.8237 4.59157C41.9866 5.02695 42.0596 5.49087 42.0383 5.95529C42.0598 6.42056 41.9871 6.88538 41.8247 7.32189C41.6623 7.7584 41.4135 8.15763 41.0932 8.49564C40.7729 8.83366 40.3877 9.10352 39.9607 9.28905C39.5337 9.47458 39.0736 9.57196 38.6081 9.57536ZM38.6081 1.23472C37.9763 1.21415 37.3468 1.3218 36.7577 1.55118C36.1686 1.78056 35.632 2.12692 35.1803 2.56937C34.7286 3.01183 34.3711 3.54121 34.1294 4.12562C33.8877 4.71003 33.7668 5.33736 33.774 5.96977C33.7583 6.60512 33.8737 7.23688 34.1129 7.82564C34.3521 8.4144 34.71 8.94754 35.1643 9.39181C35.6185 9.83609 36.1594 10.182 36.7531 10.4079C37.3469 10.6338 37.9808 10.7349 38.6153 10.7048C39.2469 10.7298 39.8769 10.6249 40.4663 10.3967C41.0558 10.1685 41.5923 9.82183 42.0426 9.37809C42.4929 8.93436 42.8475 8.40297 43.0845 7.81675C43.3215 7.23054 43.4359 6.60194 43.4205 5.96977C43.4277 5.33673 43.3066 4.70878 43.0645 4.12387C42.8223 3.53897 42.4642 3.00924 42.0117 2.56668C41.5592 2.12412 41.0218 1.77792 40.4318 1.54899C39.8418 1.32006 39.2116 1.21315 38.5792 1.23472H38.6081ZM51.5546 1.23472C50.9222 1.21315 50.292 1.32006 49.702 1.54899C49.112 1.77792 48.5746 2.12412 48.1221 2.56668C47.6696 3.00924 47.3114 3.53897 47.0693 4.12387C46.8272 4.70878 46.706 5.33673 46.7132 5.96977C46.6976 6.60512 46.813 7.23688 47.0522 7.82564C47.2914 8.4144 47.6493 8.94754 48.1035 9.39181C48.5578 9.83609 49.0987 10.182 49.6924 10.4079C50.2862 10.6338 50.9201 10.7349 51.5546 10.7048C52.2253 10.7288 52.8935 10.6124 53.5166 10.363C54.1397 10.1137 54.7039 9.73688 55.173 9.25679L54.1526 8.47486C53.8169 8.82914 53.4131 9.11183 52.9654 9.30593C52.5176 9.50003 52.0353 9.60153 51.5474 9.60432C50.6739 9.49311 49.8709 9.06705 49.2889 8.40597C48.7069 7.74489 48.3858 6.89417 48.3858 6.01321C48.3858 5.13226 48.7069 4.28154 49.2889 3.62046C49.8709 2.95938 50.6739 2.53331 51.5474 2.4221C52.366 2.41464 53.157 2.71726 53.7618 3.2692L54.8546 2.54518C54.4212 2.11253 53.9048 1.77211 53.3364 1.5444C52.768 1.3167 52.1595 1.20643 51.5474 1.22024L51.5546 1.23472ZM63.7558 3.66017C65.2031 3.66017 66.6939 4.38418 66.6939 5.91909C66.6939 7.454 65.3261 8.25042 63.7558 8.27938V3.66017ZM62.3446 8.27938C60.7887 8.27938 59.4065 7.3816 59.4065 5.91909C59.4065 4.45658 60.9262 3.68189 62.3446 3.66017V8.27938ZM63.7558 1.15508H62.3446V2.4583C59.5367 2.69722 58.0026 3.90633 58.0026 5.91909C58.0026 7.93185 59.6815 9.20612 62.3446 9.42332V10.7338H63.7558V9.42332C66.4116 9.20612 68.0978 7.82325 68.0978 5.91909C68.0978 4.01494 66.5853 2.69722 63.7558 2.4583V1.15508ZM73.1635 6.11457H76.7095V4.97787H73.1852V2.46554H77.1075V1.32884H71.7813V10.6179H77.245V9.474H73.1852V6.11457H73.1635ZM84.9232 5.3254C84.5844 5.61367 84.1521 5.76816 83.7074 5.75981H82.3831V2.46554H83.8305C84.0472 2.43702 84.2677 2.45801 84.4752 2.52695C84.6827 2.59588 84.872 2.71097 85.0287 2.86356C85.1853 3.01615 85.3055 3.20228 85.3799 3.40796C85.4544 3.61365 85.4814 3.83354 85.4587 4.05113C85.47 4.29071 85.427 4.52974 85.333 4.75038C85.2391 4.97102 85.0965 5.16758 84.916 5.3254H84.9232ZM80.9792 1.32884V10.6179H82.3831V6.88927H83.7074C84.5687 6.89543 85.4026 6.58644 86.0521 6.02045C86.317 5.76351 86.5263 5.45482 86.667 5.11355C86.8077 4.77229 86.8767 4.40573 86.8699 4.03665C86.8699 2.3859 85.6831 1.31436 83.8377 1.31436L80.9792 1.32884ZM93.2816 3.72532L94.8954 7.25128H91.6606L93.354 3.72532H93.2816ZM88.6212 10.6179H90.0685L91.183 8.40246H95.525L96.5526 10.6179H98L93.354 0.84375L88.6935 10.6179H88.6212Z" fill="white"/>
</svg>
