<svg width="30" height="30" viewBox="0 0 30 30" fill="none" xmlns="http://www.w3.org/2000/svg">
<g clip-path="url(#clip0_1001_4064)">
<path d="M13.3789 17.626L18.0971 14.9072L13.3789 12.1885V17.626Z" fill="#757575"/>
<path d="M15.1855 0.407227C7.17656 0.407227 0.685547 6.89824 0.685547 14.9072C0.685547 22.9162 7.17656 29.4072 15.1855 29.4072C23.1945 29.4072 29.6855 22.9162 29.6855 14.9072C29.6855 6.89824 23.1945 0.407227 15.1855 0.407227ZM24.248 14.9242C24.248 14.9242 24.248 17.8639 23.8742 19.2855C23.6646 20.0615 23.0529 20.6732 22.277 20.8828C20.8553 21.251 15.1855 21.251 15.1855 21.251C15.1855 21.251 9.52715 21.251 8.09414 20.8602C7.31816 20.6506 6.70645 20.0389 6.49687 19.2629C6.12305 17.8639 6.12305 14.9072 6.12305 14.9072C6.12305 14.9072 6.12305 11.9676 6.49687 10.5516C6.70645 9.77559 7.33516 9.14688 8.09414 8.93731C9.51582 8.56348 15.1855 8.56348 15.1855 8.56348C15.1855 8.56348 20.8553 8.56348 22.277 8.9543C23.0529 9.16387 23.6646 9.77559 23.8742 10.5516C24.2594 11.9676 24.248 14.9242 24.248 14.9242Z" fill="#757575"/>
</g>
<defs>
<clipPath id="clip0_1001_4064">
<rect width="29" height="29" fill="white" transform="translate(0.685547 0.407227)"/>
</clipPath>
</defs>
</svg>
